<svg id="Layer_1" data-name="Layer 1" xmlns="http://www.w3.org/2000/svg" viewBox="0 0 596.46 47.99"><defs><style>.cls-1{fill:#010101;}</style></defs><path class="cls-1" d="M34.19,23.89a62.55,62.55,0,0,1-.71,11.24,16,16,0,0,1-1.43,4.23,14,14,0,0,1-7.9,6.76,20.52,20.52,0,0,1-6.86,1.1H.59V.94h16.7a20.52,20.52,0,0,1,6.86,1.11,14.07,14.07,0,0,1,5.36,3.31,12.55,12.55,0,0,1,2.54,3.38,17.64,17.64,0,0,1,1.39,4,28.27,28.27,0,0,1,.62,4.78C34.15,19.25,34.19,21.38,34.19,23.89Zm-9,0a63.57,63.57,0,0,0-.35-8,8,8,0,0,0-1.59-4A8.27,8.27,0,0,0,16.45,9H9.62V39.16h6.83a8.24,8.24,0,0,0,6.76-2.86,8.08,8.08,0,0,0,1.59-4.12A68.46,68.46,0,0,0,25.15,23.89Z"/><path class="cls-1" d="M89.77,47.22H79.3l-9-18.46h-6.5V47.22h-9V.94H72.87a17.06,17.06,0,0,1,6.27,1.11A13.81,13.81,0,0,1,83.92,5.1a13.06,13.06,0,0,1,3,4.52,14.92,14.92,0,0,1,1,5.49,12.32,12.32,0,0,1-2.4,7.74,13.08,13.08,0,0,1-6,4.42ZM78.85,15.11A5.77,5.77,0,0,0,77,10.69,6.75,6.75,0,0,0,72.28,9H63.77V21.22h8.51A6.7,6.7,0,0,0,77,19.53,5.75,5.75,0,0,0,78.85,15.11Z"/><path class="cls-1" d="M139,47.22H108.55V.94H139V9H117.58V19.86h18.27v8.06H117.58V39.16H139Z"/><path class="cls-1" d="M211.06.94,198.64,47.22H191.1l-8.52-28.08-8.51,28.08h-7.54L154.18.94h9.42l7.15,29.19L179.2.94H186l8.45,29.19L201.63.94Z"/><path class="cls-1" d="M288.27,47.22h-9V27.85H263.57V47.22h-9V.94h9V19.86h15.67V.94h9Z"/><path class="cls-1" d="M346.12,47.22H336.7L334,39H317.52l-2.79,8.19H305.3L322.14.94h7.08ZM331.56,31.43l-5.65-16.84-5.85,16.84Z"/><path class="cls-1" d="M389,9H376.93V47.22h-9V9H355.81V.94H389Z"/><path class="cls-1" d="M434.72,42.28a19.77,19.77,0,0,1-5.72,4,17.48,17.48,0,0,1-7.15,1.33,17,17,0,0,1-12.48-5.07,13.09,13.09,0,0,1-3.8-6.92,65.53,65.53,0,0,1-.75-11.54,65.4,65.4,0,0,1,.75-11.53,13.16,13.16,0,0,1,3.8-6.93A17,17,0,0,1,421.85.55,17.48,17.48,0,0,1,429,1.89a19.72,19.72,0,0,1,5.72,4l-6,6a14.25,14.25,0,0,0-3.15-2.47,8,8,0,0,0-3.74-.78A7.17,7.17,0,0,0,416.13,11,6.45,6.45,0,0,0,415,12.71a8.94,8.94,0,0,0-.65,2.27q-.22,1.36-.36,3.51c-.08,1.43-.13,3.3-.13,5.59s0,4.16.13,5.59.21,2.6.36,3.51a9,9,0,0,0,.65,2.28,6.45,6.45,0,0,0,1.14,1.69,7.16,7.16,0,0,0,5.72,2.4,8,8,0,0,0,3.74-.78,14,14,0,0,0,3.15-2.47Z"/><path class="cls-1" d="M488,47.22h-9V27.85H463.25V47.22h-9V.94h9V19.86h15.67V.94h9Z"/><path class="cls-1" d="M540.54,47.22H510.05V.94h30.49V9H519.09V19.86h18.26v8.06H519.09V39.16h21.45Z"/><path class="cls-1" d="M595.72,47.22H585.26l-9-18.46h-6.5V47.22h-9V.94h18.13a17.08,17.08,0,0,1,6.28,1.11,13.76,13.76,0,0,1,4.77,3.05,13.09,13.09,0,0,1,3,4.52,14.92,14.92,0,0,1,1,5.49,12.26,12.26,0,0,1-2.41,7.74,13.06,13.06,0,0,1-6,4.42ZM584.8,15.11A5.73,5.73,0,0,0,583,10.69,6.71,6.71,0,0,0,578.24,9h-8.52V21.22h8.52A6.66,6.66,0,0,0,583,19.53,5.72,5.72,0,0,0,584.8,15.11Z"/></svg>