<svg id="Layer_1" data-name="Layer 1" xmlns="http://www.w3.org/2000/svg" viewBox="0 0 69.14 44.67"><defs><style>.cls-1{fill:#010101;}</style></defs><path class="cls-1" d="M.46,2.58c4.34,4,8.29,7.53,12.22,11.13L30.48,30c2.72,2.48,5.46,2.48,8.17,0Q52.9,17,67.12,4c.38-.35.78-.69,1.48-1.29A20.62,20.62,0,0,1,69,5.43q0,16.83,0,33.65c0,3.38-2,5.48-5.27,5.49q-16.08,0-32.16,0-12.93,0-25.85,0c-3.73,0-5.59-2-5.58-6q0-16.32,0-32.66C.15,5,.32,4,.46,2.58Z"/><path class="cls-1" d="M3.38.15h62.4l.3.56A9,9,0,0,0,65,1.48Q50.83,14.37,36.74,27.27c-1.55,1.41-2.75,1.44-4.24.08Q18.16,14.26,3.82,1.13A4.41,4.41,0,0,0,3.16.7Z"/></svg>