<svg id="Layer_1" data-name="Layer 1" xmlns="http://www.w3.org/2000/svg" viewBox="0 0 74.09 72.29"><defs><style>.cls-1{fill:#fff;}</style></defs><path class="cls-1" d="M43.78,52.55c1.59-.31,3.07-.54,4.52-.9,4.36-1.09,8-3.23,10-7.43a19.93,19.93,0,0,0,1.37-13.86,12.08,12.08,0,0,0-2.66-4.91,1.13,1.13,0,0,1-.26-1.23,12.72,12.72,0,0,0-.43-8.41,1.14,1.14,0,0,0-.87-.57,10.57,10.57,0,0,0-4.9,1.27c-1.35.66-2.63,1.47-4,2.17a1.63,1.63,0,0,1-1,.16,35.79,35.79,0,0,0-17.18,0,1.77,1.77,0,0,1-1.17-.25,21.81,21.81,0,0,0-7.58-3.29l-.26-.05c-1.46-.2-1.61-.12-2,1.27a13.28,13.28,0,0,0-.11,7.94.9.9,0,0,1-.14.75c-3.28,3.78-3.91,8.22-3.21,12.95a22.8,22.8,0,0,0,1.25,4.94c1.85,4.77,5.64,7.31,10.43,8.55,1.47.38,3,.61,4.58.93A8.66,8.66,0,0,0,28,57.06c0,.19-.31.4-.52.48-3.9,1.5-7.68.86-10.08-3.11a7.36,7.36,0,0,0-4.9-3.71,4.47,4.47,0,0,0-1.71,0c-.77.15-.89.58-.37,1.16a3.7,3.7,0,0,0,.85.73,10,10,0,0,1,4.08,5c1.35,3.31,3.95,4.82,7.33,5.08a45.44,45.44,0,0,0,5.18-.16c0,2.22.07,4.56,0,6.9,0,1.19-1.31,1.74-2.69,1.28a33,33,0,0,1-8.67-4.3C5.52,58.7,0,48.06.56,34.61A36,36,0,0,1,30.1.94,36.22,36.22,0,0,1,49,70.73c-1.81.6-2.86-.15-2.86-2.08l0-9.11A9.56,9.56,0,0,0,43.78,52.55Z"/></svg>