<svg id="Layer_1" data-name="Layer 1" xmlns="http://www.w3.org/2000/svg" viewBox="0 0 72.86 72.71"><path d="M66.42,72.51H6.5c-.11,0-.21-.1-.32-.13A7.24,7.24,0,0,1,.29,65.2q0-28.9,0-57.8A7.24,7.24,0,0,1,7.55.14c2.8,0,5.61,0,8.41,0h49.3A7.21,7.21,0,0,1,71,2.82a8.51,8.51,0,0,1,1.64,3.54V66.29c0,.12,0,.16-.14.39A7.29,7.29,0,0,1,70,70.87,8.7,8.7,0,0,1,66.42,72.51ZM40.05,61.59v-.87q0-8.4,0-16.81a15.63,15.63,0,0,1,.09-2,5.3,5.3,0,0,1,3.27-4.35,4.94,4.94,0,0,1,5.26.64A5.64,5.64,0,0,1,51,43c0,5.89,0,11.78,0,17.66v.94H61.77v-.53c0-6.71,0-13.42,0-20.14a13.8,13.8,0,0,0-.86-4.39A12.63,12.63,0,0,0,49.3,28.4a10.57,10.57,0,0,0-6.65,2.38c-.92.71-1.7,1.59-2.59,2.43V29.16H29.3V61.59ZM11.2,29.14V61.6H21.92V29.14Zm5.36-6.23a6.49,6.49,0,0,0,0-13,6.36,6.36,0,0,0-6.51,6.47A6.4,6.4,0,0,0,16.56,22.91Z"/></svg>