<svg id="Layer_1" data-name="Layer 1" xmlns="http://www.w3.org/2000/svg" viewBox="0 0 74.09 77.8"><defs><style>.cls-1{fill:#010101;}</style></defs><path class="cls-1" d="M56.2,15.29H53a2.18,2.18,0,0,0-2.18,2.17v4.69A2.18,2.18,0,0,0,53,24.32h3.25a8.53,8.53,0,0,1,8.47,8.53h0V48.28a2.17,2.17,0,0,0,2.17,2.17h4.78a2.17,2.17,0,0,0,2.17-2.17V33A17.68,17.68,0,0,0,56.2,15.29Z"/><path class="cls-1" d="M17.89,50.45H33.37a2.17,2.17,0,0,0,2.17-2.17V2.54A2.18,2.18,0,0,0,33.37.36H28.6a2.18,2.18,0,0,0-2.17,2.18V41.42H17.89v0a8.53,8.53,0,0,1,0-17.06h3.26a2.18,2.18,0,0,0,2.18-2.17V17.46a2.18,2.18,0,0,0-2.18-2.17H18.49C8,15.29-.51,23.89.37,34.36A17.59,17.59,0,0,0,17.89,50.45Z"/><rect class="cls-1" x="0.31" y="53.55" width="73.57" height="9.12" rx="2.17"/><rect class="cls-1" x="38.64" y="0.36" width="9.12" height="50.09" rx="2.17"/><path class="cls-1" d="M5.25,74.83a7.21,7.21,0,0,1-.09,1.36,2.12,2.12,0,0,1-.17.52,1.79,1.79,0,0,1-1,.82,2.55,2.55,0,0,1-.84.13h-2V72h2a2.55,2.55,0,0,1,.84.14,1.62,1.62,0,0,1,.65.4A1.53,1.53,0,0,1,5,73a2.48,2.48,0,0,1,.17.48,3.41,3.41,0,0,1,.07.58C5.24,74.26,5.25,74.52,5.25,74.83Zm-1.1,0a7.7,7.7,0,0,0,0-1,1,1,0,0,0-.2-.48A1,1,0,0,0,3.09,73H2.26v3.66h.83a1,1,0,0,0,.82-.35,1,1,0,0,0,.2-.5A8.18,8.18,0,0,0,4.15,74.83Z"/><path class="cls-1" d="M12,77.66H10.72L9.63,75.42H8.84v2.24H7.74V72h2.2a2.06,2.06,0,0,1,.76.14,1.45,1.45,0,0,1,.58.37,1.51,1.51,0,0,1,.36.54,1.86,1.86,0,0,1,.13.67,1.45,1.45,0,0,1-.3.94,1.63,1.63,0,0,1-.73.54Zm-1.32-3.9a.74.74,0,0,0-.22-.54.85.85,0,0,0-.58-.2h-1V74.5h1a.8.8,0,0,0,.58-.2A.74.74,0,0,0,10.67,73.76Z"/><path class="cls-1" d="M18,77.66H14.27V72H18v1H15.37v1.32h2.22v1H15.37v1.36H18Z"/><path class="cls-1" d="M26.72,72l-1.51,5.62H24.3l-1-3.41-1,3.41h-.92L19.81,72H21l.87,3.54,1-3.54h.82l1,3.54L25.58,72Z"/><path class="cls-1" d="M36.1,77.66H35V75.31H33.1v2.35H32V72h1.1v2.3H35V72h1.1Z"/><path class="cls-1" d="M43.12,77.66H42l-.34-1h-2l-.34,1H38.16L40.21,72h.86Zm-1.77-1.92-.69-2-.71,2Z"/><path class="cls-1" d="M48.33,73H46.86v4.64h-1.1V73H44.3V72h4Z"/><path class="cls-1" d="M53.88,77.06a2.55,2.55,0,0,1-.7.49,2.25,2.25,0,0,1-.87.16,2.05,2.05,0,0,1-1.51-.62,1.6,1.6,0,0,1-.46-.84,10.93,10.93,0,0,1,0-2.8,1.6,1.6,0,0,1,.46-.84A2.05,2.05,0,0,1,52.31,72a2.08,2.08,0,0,1,.87.17,2.5,2.5,0,0,1,.7.48l-.73.73a1.54,1.54,0,0,0-.38-.3.9.9,0,0,0-.46-.1.88.88,0,0,0-.69.29.85.85,0,0,0-.14.21,1.36,1.36,0,0,0-.08.28,3.75,3.75,0,0,0,0,.42c0,.18,0,.4,0,.68s0,.51,0,.68a4,4,0,0,0,0,.43,1.25,1.25,0,0,0,.08.27.7.7,0,0,0,.14.21.88.88,0,0,0,.69.29.9.9,0,0,0,.46-.1,1.54,1.54,0,0,0,.38-.3Z"/><path class="cls-1" d="M60.34,77.66h-1.1V75.31h-1.9v2.35h-1.1V72h1.1v2.3h1.9V72h1.1Z"/><path class="cls-1" d="M66.72,77.66H63V72h3.7v1h-2.6v1.32h2.22v1H64.12v1.36h2.6Z"/><path class="cls-1" d="M73.42,77.66H72.15l-1.09-2.24h-.79v2.24h-1.1V72h2.2a2.06,2.06,0,0,1,.76.14,1.45,1.45,0,0,1,.58.37,1.51,1.51,0,0,1,.36.54,1.85,1.85,0,0,1,.12.67,1.45,1.45,0,0,1-.29.94,1.63,1.63,0,0,1-.73.54Zm-1.32-3.9a.74.74,0,0,0-.22-.54.85.85,0,0,0-.58-.2h-1V74.5h1a.8.8,0,0,0,.58-.2A.74.74,0,0,0,72.1,73.76Z"/></svg>