<svg id="Layer_1" data-name="Layer 1" xmlns="http://www.w3.org/2000/svg" viewBox="0 0 54.65 70.95"><path d="M.34,35.48q0-12,0-24a10.56,10.56,0,0,1,5.91-10A10.38,10.38,0,0,1,11.15.27q10.79,0,21.57,0c2.11,0,3.71,1.26,5.23,2.58.85.74,1.67,1.49,2.46,2.28C43.86,8.54,47.3,12,50.69,15.42a27.22,27.22,0,0,1,2.75,3.47,5.61,5.61,0,0,1,1,3.28c0,12.51,0,25,0,37.52a10.63,10.63,0,0,1-8,10.63,10.48,10.48,0,0,1-2.94.4q-16.05,0-32.11,0A10.8,10.8,0,0,1,.48,61.6a13.18,13.18,0,0,1-.13-2.35Q.34,47.37.34,35.48Zm5.39,0q0,12,0,24a5.43,5.43,0,0,0,5.8,5.83q15.86,0,31.69,0a6.74,6.74,0,0,0,1.85-.22A5.38,5.38,0,0,0,49,59.66V25c0-.19,0-.37,0-.56a2.17,2.17,0,0,0-1.57-2.07A8.58,8.58,0,0,0,45.26,22c-3.1,0-6.2,0-9.29,0-2.14,0-3.19-1.06-3.2-3.21,0-2.5,0-5,0-7.5a24.36,24.36,0,0,0-.28-3.73,2,2,0,0,0-2.31-1.83q-9.33,0-18.65,0a7.68,7.68,0,0,0-1.79.2,5.39,5.39,0,0,0-4,5.43Q5.72,23.38,5.73,35.43Z"/><path d="M39.46,48.63a10.32,10.32,0,0,1-6-2,1.33,1.33,0,0,0-.89-.24,37,37,0,0,0-7.75,2,32.66,32.66,0,0,0-3.39,1.72,2.46,2.46,0,0,0-.8,1.08,14.66,14.66,0,0,1-3.18,4.34,5.61,5.61,0,0,1-2.66,1.55,3.09,3.09,0,0,1-3.24-1.34,2.68,2.68,0,0,1,.27-3.11,10.12,10.12,0,0,1,3.65-2.8c1-.51,2.11-.94,3.15-1.43a1.54,1.54,0,0,0,.67-.56,35,35,0,0,0,4.3-9.35c.21-.85.48-1.69.64-2.55a2,2,0,0,0-.2-1,46.56,46.56,0,0,1-1.81-4.85,7.38,7.38,0,0,1,.07-3.27,3,3,0,0,1,3.1-2.19,2.77,2.77,0,0,1,2.77,2.19,11.15,11.15,0,0,1-.26,6.42c-.86,2.81-1.14,2,.67,4.6a56.43,56.43,0,0,0,4,4.78,1.54,1.54,0,0,0,1.81.47,13.49,13.49,0,0,1,5.78-.66,5.07,5.07,0,0,1,.54.09c2.1.47,3.08,1.75,2.85,3.54a2.86,2.86,0,0,1-2.76,2.48C40.34,48.61,39.9,48.61,39.46,48.63ZM26,39.52a18.09,18.09,0,0,1-2.36,5.86.25.25,0,0,0,.29.37l5.91-1.64a.25.25,0,0,0,.13-.4l-3.52-4.3A.26.26,0,0,0,26,39.52Zm-1-9.77c.12.18.26.44.61.43a8.17,8.17,0,0,0,.11-1.32,4.59,4.59,0,0,0-.06-1c0-.11-.12-.21-.24-.32a.25.25,0,0,0-.34,0,.79.79,0,0,0-.27.35A2.6,2.6,0,0,0,25,29.75ZM40.37,45.32a3.14,3.14,0,0,0-1.71-.12.26.26,0,0,0-.06.48,2.17,2.17,0,0,0,1.77.12A.25.25,0,0,0,40.37,45.32Zm-25.52,8.8a3.24,3.24,0,0,0,.82-.7.26.26,0,0,0-.35-.38,5.14,5.14,0,0,0-.79.69A.25.25,0,0,0,14.85,54.12Z"/></svg>