<svg id="Layer_1" data-name="Layer 1" xmlns="http://www.w3.org/2000/svg" viewBox="0 0 62.1 61.98"><defs><style>.cls-1{fill:#fff;}</style></defs><path class="cls-1" d="M51.77.27h-11a3,3,0,1,0,0,6H51.39l-26.2,26.2a3,3,0,0,0,4.25,4.24L55.63,10.53V21.14a3,3,0,0,0,6,0v-11A9.88,9.88,0,0,0,51.77.27Z"/><path class="cls-1" d="M58.64,31.65a3,3,0,0,0-3,3v17a3.86,3.86,0,0,1-3.86,3.87H10.26A3.86,3.86,0,0,1,6.4,51.65V10.15a3.86,3.86,0,0,1,3.86-3.87h17a3,3,0,0,0,0-6h-17A9.88,9.88,0,0,0,.39,10.15v41.5a9.87,9.87,0,0,0,9.87,9.88H51.77a9.87,9.87,0,0,0,9.87-9.88v-17A3,3,0,0,0,58.64,31.65Z"/></svg>