<svg id="Layer_1" data-name="Layer 1" xmlns="http://www.w3.org/2000/svg" viewBox="0 0 66.88 45.28"><defs><style>.cls-1{fill:#fff;}</style></defs><path class="cls-1" d="M63.68,33.07H3.2A2.79,2.79,0,0,0,.41,35.83v6.06A2.78,2.78,0,0,0,3.2,44.65H63.68a2.78,2.78,0,0,0,2.79-2.76V35.83A2.78,2.78,0,0,0,63.68,33.07Z"/><path class="cls-1" d="M63.68,16.87H3.2A2.78,2.78,0,0,0,.41,19.63v6.05A2.78,2.78,0,0,0,3.2,28.44H63.68a2.78,2.78,0,0,0,2.79-2.76V19.63A2.78,2.78,0,0,0,63.68,16.87Z"/><path class="cls-1" d="M63.68.66H3.2A2.78,2.78,0,0,0,.41,3.42V9.48A2.78,2.78,0,0,0,3.2,12.24H63.68a2.78,2.78,0,0,0,2.79-2.76V3.42A2.78,2.78,0,0,0,63.68.66Z"/></svg>